<?xml version="1.0" standalone="no"?>
<!DOCTYPE svg PUBLIC "-//W3C//DTD SVG 20010904//EN"
 "http://www.w3.org/TR/2001/REC-SVG-20010904/DTD/svg10.dtd">
<svg version="1.0" xmlns="http://www.w3.org/2000/svg"
 width="500.000000pt" height="500.000000pt" viewBox="0 0 500.000000 500.000000"
 preserveAspectRatio="xMidYMid meet">
<metadata>
Created by potrace 1.11, written by Peter Selinger 2001-2013
</metadata>
<g transform="translate(0.000000,500.000000) scale(0.100000,-0.100000)"
fill="#000000" stroke="none">
<path d="M0 3755 l0 -1245 275 0 275 0 0 470 0 470 590 -470 591 -470 734 0
735 0 615 515 c338 283 617 515 620 515 3 0 5 -232 5 -515 l0 -515 280 0 280
0 0 1245 0 1245 -2500 0 -2500 0 0 -1245z m4470 491 c0 -3 -192 -160 -428
-350 -235 -189 -678 -547 -986 -795 l-558 -451 -47 39 c-69 58 -971 818 -1434
1209 -224 189 -407 345 -407 348 0 2 868 4 1930 4 1062 0 1930 -2 1930 -4z"/>
<path d="M0 530 l0 -530 2500 0 2500 0 0 530 0 530 -280 0 -280 0 0 -195 0
-195 -1945 0 -1945 0 0 195 0 195 -275 0 -275 0 0 -530z"/>
</g>
</svg>
