<?xml version="1.0" standalone="no"?>
<!DOCTYPE svg PUBLIC "-//W3C//DTD SVG 20010904//EN"
 "http://www.w3.org/TR/2001/REC-SVG-20010904/DTD/svg10.dtd">
<svg version="1.0" xmlns="http://www.w3.org/2000/svg"
 width="500.000000pt" height="500.000000pt" viewBox="0 0 500.000000 500.000000"
 preserveAspectRatio="xMidYMid meet">
<metadata>
Created by potrace 1.11, written by Peter Selinger 2001-2013
</metadata>
<g transform="translate(0.000000,500.000000) scale(0.100000,-0.100000)"
fill="#000000" stroke="none">
<path d="M0 3755 l0 -1245 616 2 617 3 144 325 c79 179 171 388 205 465 33 77
77 174 96 215 20 41 90 199 157 350 l122 275 460 3 460 2 118 -267 c65 -148
138 -308 161 -358 23 -49 122 -270 219 -490 97 -220 188 -424 201 -453 13 -29
24 -57 24 -62 0 -6 254 -10 700 -10 l700 0 0 1245 0 1245 -2500 0 -2500 0 0
-1245z"/>
<path d="M2407 3203 c-8 -12 -277 -682 -277 -688 0 -3 126 -5 280 -5 154 0
280 3 280 7 0 7 -270 685 -275 691 -2 2 -5 -1 -8 -5z"/>
<path d="M0 530 l0 -530 2500 0 2500 0 0 530 0 530 -375 0 c-206 0 -375 -2
-375 -4 0 -2 12 -30 26 -62 15 -33 35 -78 45 -101 l18 -43 -488 0 -489 0 -10
27 c-5 16 -24 63 -42 105 l-32 78 -868 0 -868 0 -42 -105 -42 -105 -478 0
-478 0 44 100 c24 55 44 102 44 105 0 3 -133 5 -295 5 l-295 0 0 -530z"/>
</g>
</svg>
