<?xml version="1.0" standalone="no"?>
<!DOCTYPE svg PUBLIC "-//W3C//DTD SVG 20010904//EN"
 "http://www.w3.org/TR/2001/REC-SVG-20010904/DTD/svg10.dtd">
<svg version="1.0" xmlns="http://www.w3.org/2000/svg"
 width="500.000000pt" height="500.000000pt" viewBox="0 0 500.000000 500.000000"
 preserveAspectRatio="xMidYMid meet">
<metadata>
Created by potrace 1.11, written by Peter Selinger 2001-2013
</metadata>
<g transform="translate(0.000000,500.000000) scale(0.100000,-0.100000)"
fill="#000000" stroke="none">
<path d="M0 3755 l0 -1245 145 0 c89 0 145 4 145 10 0 23 74 40 171 40 54 0
100 4 103 8 5 9 0 19 -54 117 -18 33 -44 80 -57 105 -14 25 -30 51 -36 59 -12
14 -27 39 -52 88 -9 18 -23 37 -31 44 -8 6 -14 16 -14 21 0 5 -17 35 -37 66
-20 31 -46 73 -56 92 -11 19 -31 50 -45 69 -16 22 -27 51 -30 82 l-5 49 68 0
c94 0 127 -18 210 -113 59 -68 312 -343 395 -428 14 -15 72 -76 129 -138 l103
-111 82 0 81 1 50 45 c28 25 85 75 128 111 l78 66 -6 49 c-6 43 -4 53 16 74
12 13 30 24 39 24 9 0 20 4 25 8 11 10 111 36 200 53 33 6 174 13 313 16 l252
6 0 57 c0 72 -16 117 -99 281 -37 74 -72 143 -78 154 -5 11 -29 58 -52 105
-22 47 -54 108 -70 135 -15 28 -51 91 -78 140 -28 50 -59 106 -70 125 -11 19
-32 58 -47 85 -16 28 -65 113 -111 190 -121 204 -137 234 -130 245 3 6 42 10
86 10 80 0 81 0 137 -44 95 -74 177 -164 462 -510 216 -263 345 -413 399 -466
26 -25 60 -61 76 -80 17 -19 82 -96 145 -170 62 -74 116 -137 119 -140 4 -3
24 -27 46 -55 22 -27 60 -73 85 -101 25 -28 65 -74 89 -103 24 -29 65 -75 91
-102 l47 -49 459 0 c418 0 466 -2 534 -19 81 -21 187 -55 235 -76 17 -7 64
-25 105 -41 88 -32 120 -51 120 -70 0 -11 21 -14 95 -14 l95 0 0 1245 0 1245
-2500 0 -2500 0 0 -1245z"/>
<path d="M0 530 l0 -530 2500 0 2500 0 0 530 0 530 -1339 0 c-1261 0 -1340 -1
-1359 -17 -11 -10 -91 -103 -177 -208 -229 -278 -248 -299 -322 -351 -70 -49
-129 -65 -187 -50 -45 11 -45 12 123 319 17 31 44 81 59 110 16 28 45 82 65
118 20 36 34 69 30 73 -3 3 -431 6 -950 6 l-943 0 0 -530z"/>
</g>
</svg>
