<?xml version="1.0" standalone="no"?>
<!DOCTYPE svg PUBLIC "-//W3C//DTD SVG 20010904//EN"
 "http://www.w3.org/TR/2001/REC-SVG-20010904/DTD/svg10.dtd">
<svg version="1.0" xmlns="http://www.w3.org/2000/svg"
 width="500.000000pt" height="500.000000pt" viewBox="0 0 500.000000 500.000000"
 preserveAspectRatio="xMidYMid meet">
<metadata>
Created by potrace 1.11, written by Peter Selinger 2001-2013
</metadata>
<g transform="translate(0.000000,500.000000) scale(0.100000,-0.100000)"
fill="#000000" stroke="none">
<path d="M0 3755 l0 -1245 170 0 170 0 2 188 3 187 120 5 c141 6 176 20 215
91 l25 44 6 500 c6 498 6 500 32 597 93 350 331 547 734 607 39 6 176 11 302
11 l231 0 0 -339 0 -339 -87 -5 c-109 -6 -150 -19 -205 -60 -46 -35 -81 -88
-100 -152 -8 -28 -12 -167 -12 -460 -1 -374 -3 -428 -20 -495 -40 -162 -114
-259 -239 -315 -36 -17 -67 -32 -67 -35 -1 -28 94 -30 1210 -30 1116 0 1211 2
1210 30 0 3 -31 18 -67 35 -124 55 -203 159 -240 313 -14 56 -17 139 -18 492
-1 376 -3 431 -19 477 -46 137 -149 203 -318 203 l-68 0 0 340 0 340 231 0
c317 0 457 -24 624 -105 165 -80 276 -191 351 -350 84 -177 86 -193 93 -760 4
-275 11 -509 16 -520 38 -89 91 -114 238 -115 l107 0 0 -190 0 -190 185 0 185
0 0 1245 0 1245 -2500 0 -2500 0 0 -1245z"/>
<path d="M0 530 l0 -530 2500 0 2500 0 0 530 0 530 -370 0 -370 0 -6 -27 c-68
-308 -200 -484 -448 -598 -158 -73 -293 -95 -603 -95 l-233 0 0 339 0 338 88
5 c48 3 103 12 122 21 32 14 -28 15 -690 15 -662 0 -722 -1 -690 -15 19 -9 74
-18 123 -21 l87 -5 0 -338 0 -339 -229 0 c-126 0 -264 5 -306 11 -279 39 -494
160 -621 351 -62 94 -98 185 -129 331 l-5 27 -360 0 -360 0 0 -530z"/>
</g>
</svg>
